<?xml version="1.0" standalone="no"?>
<!DOCTYPE svg PUBLIC "-//W3C//DTD SVG 20010904//EN"
 "http://www.w3.org/TR/2001/REC-SVG-20010904/DTD/svg10.dtd">
<svg version="1.0" xmlns="http://www.w3.org/2000/svg"
 width="170.000000pt" height="170.000000pt" viewBox="0 0 170.000000 170.000000"
 preserveAspectRatio="xMidYMid meet">
<metadata>
Created by potrace 1.10, written by Peter Selinger 2001-2011
</metadata>
<g transform="translate(0.000000,170.000000) scale(0.050000,-0.050000)"
fill="#f7b62b" stroke="none">
<path d="M1910 3039 c-352 -120 -660 -228 -685 -238 l-45 -20 0 -879 0 -878
121 -41 c154 -52 141 -132 134 811 l-5 803 420 144 c231 78 436 147 455 153
33 10 35 -64 35 -1363 l0 -1373 71 -30 c39 -16 98 -35 130 -41 l59 -12 0 1592
c0 1262 -5 1593 -25 1591 -14 -1 -313 -99 -665 -219z"/>
<path d="M860 2680 l-110 -34 0 -976 0 -976 669 -227 c368 -125 686 -232 705
-238 34 -11 36 46 36 1202 0 962 -5 1211 -25 1204 -14 -5 -72 -25 -130 -44
l-105 -34 0 -991 c0 -935 -2 -990 -35 -976 -62 24 -611 211 -740 252 l-125 40
0 908 c0 499 -7 912 -15 916 -8 5 -64 -6 -125 -26z"/>
</g>
</svg>
